<svg width="84" height="17" viewBox="0 0 84 17" fill="none" xmlns="http://www.w3.org/2000/svg">
<path d="M0 12.3721L6.23949 15.973V7.72632L0 4.12561V12.3721Z" fill="#FB1010"/>
<path d="M8.05566 15.9731L14.2912 12.3742L8.05566 8.77551V15.9731Z" fill="black"/>
<path d="M29.4902 7.72632V15.973L35.7297 12.3721V4.12561L29.4902 7.72632Z" fill="#FB1010"/>
<path d="M27.6741 15.9731V8.77551L21.4385 12.3742L27.6741 15.9731Z" fill="black"/>
<path d="M28.5817 0L17.8642 6.18299L7.1468 0L1.81531 3.07631L14.3045 10.2841L17.8642 12.3397L21.426 10.2841L33.913 3.07631L28.5817 0Z" fill="#FCD535"/>
<path d="M40.4985 1.47141H42.0363L44.1493 4.39657L46.157 1.47141H47.6535V7.05854H45.484V4.20482L43.4011 7.12997L41.3256 4.20482V7.05854H40.4985V1.47141Z" fill="black"/>
<path d="M49.779 1.47141H54.5013V2.33241H51.9559L51.9522 3.84011H53.8998V4.70112H51.9522V6.19753H54.5013V7.05854H49.779V1.47141Z" fill="black"/>
<path d="M57.2961 2.32866H55.7019V1.46765H61.0635V2.32866H59.4693V7.05854H57.2961V2.32866Z" fill="black"/>
<path d="M64.1177 2.88135L63.471 1.47141H65.7607L68.4979 7.0623H66.0427L65.6291 6.16745H63.4258L63.016 7.0623H62.0648L64.1177 2.88135ZM65.2343 5.30645L64.5275 3.77243L63.8244 5.30645H65.2343Z" fill="black"/>
<path d="M42.4423 10.5677V16.0421H41.728V10.5677H42.4423ZM44.2019 10.5677V11.1618H39.9721V10.5677H44.2019Z" fill="black"/>
<path d="M49.8166 13.1319V13.4778C49.8166 13.8889 49.7652 14.2574 49.6624 14.5832C49.5597 14.9091 49.4118 15.1861 49.2188 15.4142C49.0258 15.6423 48.7939 15.8165 48.5232 15.9368C48.255 16.0571 47.9542 16.1172 47.6208 16.1172C47.2975 16.1172 47.0005 16.0571 46.7297 15.9368C46.4615 15.8165 46.2284 15.6423 46.0304 15.4142C45.8349 15.1861 45.6833 14.9091 45.5755 14.5832C45.4677 14.2574 45.4138 13.8889 45.4138 13.4778V13.1319C45.4138 12.7209 45.4664 12.3536 45.5717 12.0303C45.6795 11.7044 45.8311 11.4275 46.0267 11.1994C46.2222 10.9688 46.454 10.7933 46.7222 10.673C46.9929 10.5527 47.29 10.4925 47.6133 10.4925C47.9467 10.4925 48.2475 10.5527 48.5157 10.673C48.7864 10.7933 49.0182 10.9688 49.2112 11.1994C49.4068 11.4275 49.5559 11.7044 49.6587 12.0303C49.7639 12.3536 49.8166 12.7209 49.8166 13.1319ZM49.0984 13.4778V13.1244C49.0984 12.7986 49.0646 12.5103 48.9969 12.2597C48.9318 12.009 48.8353 11.7984 48.7074 11.628C48.5796 11.4576 48.4229 11.3285 48.2374 11.2407C48.0545 11.153 47.8464 11.1091 47.6133 11.1091C47.3877 11.1091 47.1834 11.153 47.0005 11.2407C46.82 11.3285 46.6646 11.4576 46.5342 11.628C46.4064 11.7984 46.3074 12.009 46.2372 12.2597C46.167 12.5103 46.1319 12.7986 46.1319 13.1244V13.4778C46.1319 13.8062 46.167 14.097 46.2372 14.3501C46.3074 14.6008 46.4077 14.8126 46.538 14.9855C46.6708 15.156 46.8275 15.2851 47.008 15.3728C47.191 15.4605 47.3952 15.5044 47.6208 15.5044C47.8564 15.5044 48.0657 15.4605 48.2487 15.3728C48.4317 15.2851 48.5859 15.156 48.7112 14.9855C48.839 14.8126 48.9355 14.6008 49.0007 14.3501C49.0659 14.097 49.0984 13.8062 49.0984 13.4778Z" fill="black"/>
<path d="M55.6418 13.3162V15.3202C55.5741 15.4204 55.4663 15.5332 55.3184 15.6585C55.1705 15.7814 54.9663 15.8892 54.7056 15.9819C54.4474 16.0721 54.114 16.1172 53.7055 16.1172C53.3721 16.1172 53.065 16.0596 52.7843 15.9443C52.5061 15.8265 52.2642 15.656 52.0586 15.433C51.8556 15.2074 51.6977 14.9342 51.5849 14.6133C51.4746 14.29 51.4195 13.924 51.4195 13.5154V13.0906C51.4195 12.682 51.4671 12.3173 51.5623 11.9965C51.6601 11.6756 51.803 11.4037 51.991 11.1806C52.179 10.955 52.4096 10.7845 52.6828 10.6692C52.956 10.5514 53.2693 10.4925 53.6227 10.4925C54.0413 10.4925 54.391 10.5652 54.6717 10.7106C54.955 10.8535 55.1756 11.0515 55.3335 11.3047C55.4939 11.5578 55.5967 11.8461 55.6418 12.1694H54.9161C54.8835 11.9714 54.8184 11.7909 54.7206 11.628C54.6254 11.4651 54.4888 11.3347 54.3108 11.237C54.1328 11.1367 53.9035 11.0866 53.6227 11.0866C53.3696 11.0866 53.1503 11.133 52.9648 11.2257C52.7793 11.3184 52.6264 11.4513 52.5061 11.6242C52.3858 11.7972 52.2955 12.0065 52.2354 12.2521C52.1777 12.4978 52.1489 12.7747 52.1489 13.0831V13.5154C52.1489 13.8313 52.1852 14.1133 52.2579 14.3614C52.3331 14.6096 52.4396 14.8214 52.5775 14.9968C52.7154 15.1698 52.8795 15.3014 53.07 15.3916C53.263 15.4818 53.4761 15.527 53.7092 15.527C53.9674 15.527 54.1767 15.5056 54.3371 15.463C54.4975 15.4179 54.6229 15.3653 54.7131 15.3051C54.8033 15.2425 54.8723 15.1836 54.9199 15.1284V13.9027H53.6528V13.3162H55.6418Z" fill="black"/>
<path d="M61.0158 15.4518V16.0421H58.117V15.4518H61.0158ZM58.2636 10.5677V16.0421H57.5379V10.5677H58.2636ZM60.6323 12.9214V13.5117H58.117V12.9214H60.6323ZM60.9782 10.5677V11.1618H58.117V10.5677H60.9782Z" fill="black"/>
<path d="M64.7054 10.5677V16.0421H63.991V10.5677H64.7054ZM66.465 10.5677V11.1618H62.2352V10.5677H66.465Z" fill="black"/>
<path d="M71.5458 12.9214V13.5117H68.583V12.9214H71.5458ZM68.6958 10.5677V16.0421H67.9701V10.5677H68.6958ZM72.1774 10.5677V16.0421H71.4555V10.5677H72.1774Z" fill="black"/>
<path d="M77.6379 15.4518V16.0421H74.7391V15.4518H77.6379ZM74.8857 10.5677V16.0421H74.16V10.5677H74.8857ZM77.2544 12.9214V13.5117H74.7391V12.9214H77.2544ZM77.6003 10.5677V11.1618H74.7391V10.5677H77.6003Z" fill="black"/>
<path d="M79.2295 10.5677H81.0418C81.4528 10.5677 81.8 10.6304 82.0832 10.7557C82.369 10.881 82.5858 11.0665 82.7337 11.3122C82.8841 11.5553 82.9593 11.8548 82.9593 12.2108C82.9593 12.4614 82.9079 12.6908 82.8051 12.8988C82.7049 13.1044 82.5595 13.2798 82.369 13.4252C82.181 13.5681 81.9554 13.6746 81.6922 13.7448L81.4892 13.8237H79.786L79.7785 13.2334H81.0643C81.325 13.2334 81.5418 13.1883 81.7148 13.0981C81.8877 13.0054 82.0181 12.8813 82.1058 12.7259C82.1935 12.5705 82.2374 12.3988 82.2374 12.2108C82.2374 12.0002 82.196 11.816 82.1133 11.6581C82.0306 11.5002 81.9003 11.3786 81.7223 11.2934C81.5468 11.2056 81.32 11.1618 81.0418 11.1618H79.9552V16.0421H79.2295V10.5677ZM82.4291 16.0421L81.0982 13.5606L81.8539 13.5568L83.2037 15.9969V16.0421H82.4291Z" fill="black"/>
</svg>
