<svg width="120" height="30" viewBox="0 0 120 30" fill="none" xmlns="http://www.w3.org/2000/svg">
<path d="M51.3722 0.00769955H53.8434L57.2391 5.99795L60.4656 0.00769955H62.8703V11.4492H59.384V5.60527L56.0367 11.5955L52.7015 5.60527V11.4492H51.3722V0.00769955Z" fill="black"/>
<path d="M66.2861 0.00769955H73.875V1.7709H69.7845L69.7784 4.85841H72.9082V6.62161H69.7784V9.68603H73.875V11.4492H66.2861V0.00769955Z" fill="black"/>
<path d="M78.3662 1.7632H75.8043V0H84.4204V1.7632H81.8585V11.4492H78.3662V1.7632Z" fill="black"/>
<path d="M89.3285 2.89503L88.2893 0.00769955H91.9689L96.3676 11.4569H92.4221L91.7575 9.62443H88.2168L87.5582 11.4569H86.0295L89.3285 2.89503ZM91.123 7.86124L89.9871 4.71982L88.8572 7.86124H91.123Z" fill="black"/>
<path d="M54.496 18.6355V29.846H53.348V18.6355H54.496ZM57.3237 18.6355V19.852H50.5263V18.6355H57.3237Z" fill="black"/>
<path d="M66.3465 23.8866V24.5949C66.3465 25.4367 66.2639 26.1913 66.0988 26.8586C65.9336 27.5259 65.696 28.0931 65.3858 28.5602C65.0756 29.0273 64.703 29.384 64.268 29.6304C63.837 29.8768 63.3536 30 62.8179 30C62.2983 30 61.821 29.8768 61.3859 29.6304C60.9549 29.384 60.5803 29.0273 60.2621 28.5602C59.9479 28.0931 59.7042 27.5259 59.531 26.8586C59.3578 26.1913 59.2712 25.4367 59.2712 24.5949V23.8866C59.2712 23.0447 59.3558 22.2928 59.5249 21.6306C59.6982 20.9633 59.9419 20.3961 60.256 19.929C60.5702 19.4568 60.9428 19.0974 61.3738 18.8511C61.8089 18.6047 62.2862 18.4815 62.8058 18.4815C63.3416 18.4815 63.8249 18.6047 64.2559 18.8511C64.691 19.0974 65.0636 19.4568 65.3737 19.929C65.6879 20.3961 65.9276 20.9633 66.0927 21.6306C66.2619 22.2928 66.3465 23.0447 66.3465 23.8866ZM65.1925 24.5949V23.8712C65.1925 23.2039 65.1381 22.6136 65.0293 22.1003C64.9246 21.587 64.7695 21.1558 64.5641 20.8067C64.3586 20.4577 64.1069 20.1933 63.8088 20.0137C63.5148 19.834 63.1804 19.7442 62.8058 19.7442C62.4433 19.7442 62.115 19.834 61.821 20.0137C61.5309 20.1933 61.2812 20.4577 61.0717 20.8067C60.8663 21.1558 60.7072 21.587 60.5944 22.1003C60.4816 22.6136 60.4252 23.2039 60.4252 23.8712V24.5949C60.4252 25.2673 60.4816 25.8628 60.5944 26.3812C60.7072 26.8945 60.8683 27.3283 61.0778 27.6824C61.2913 28.0315 61.543 28.2958 61.833 28.4755C62.1271 28.6551 62.4554 28.745 62.8179 28.745C63.1965 28.745 63.5329 28.6551 63.8269 28.4755C64.121 28.2958 64.3687 28.0315 64.5701 27.6824C64.7755 27.3283 64.9306 26.8945 65.0354 26.3812C65.1401 25.8628 65.1925 25.2673 65.1925 24.5949Z" fill="black"/>
<path d="M75.7077 24.2638V28.3677C75.5989 28.573 75.4257 28.804 75.188 29.0607C74.9504 29.3122 74.6221 29.5329 74.2032 29.7228C73.7883 29.9076 73.2526 30 72.596 30C72.0602 30 71.5668 29.8819 71.1157 29.6458C70.6685 29.4046 70.2798 29.0555 69.9495 28.5987C69.6233 28.1367 69.3695 27.5772 69.1882 26.9202C69.011 26.258 68.9224 25.5086 68.9224 24.6719V23.8019C68.9224 22.9652 68.9989 22.2183 69.152 21.5613C69.3091 20.9043 69.5387 20.3473 69.8408 19.8905C70.1429 19.4285 70.5135 19.0795 70.9525 18.8434C71.3916 18.6021 71.8951 18.4815 72.4631 18.4815C73.1357 18.4815 73.6977 18.6303 74.1488 18.9281C74.604 19.2206 74.9584 19.6261 75.2122 20.1446C75.47 20.663 75.6352 21.2533 75.7077 21.9155H74.5415C74.4892 21.51 74.3844 21.1404 74.2273 20.8067C74.0743 20.4731 73.8548 20.2062 73.5688 20.006C73.2828 19.8007 72.9142 19.698 72.4631 19.698C72.0562 19.698 71.7038 19.793 71.4057 19.9829C71.1076 20.1728 70.8619 20.4449 70.6685 20.799C70.4752 21.1532 70.3302 21.5818 70.2335 22.0849C70.1409 22.5879 70.0945 23.1551 70.0945 23.7865V24.6719C70.0945 25.3187 70.1529 25.8961 70.2698 26.4043C70.3906 26.9125 70.5618 27.3462 70.7833 27.7055C71.0049 28.0597 71.2687 28.3292 71.5749 28.514C71.885 28.6988 72.2274 28.7912 72.602 28.7912C73.0169 28.7912 73.3533 28.7475 73.6111 28.6603C73.8688 28.5679 74.0703 28.4601 74.2153 28.3369C74.3603 28.2086 74.471 28.0879 74.5476 27.975V25.465H72.5114V24.2638H75.7077Z" fill="black"/>
<path d="M84.3438 28.6372V29.846H79.6853V28.6372H84.3438ZM79.921 18.6355V29.846H78.7548V18.6355H79.921ZM83.7275 23.4554V24.6642H79.6853V23.4554H83.7275ZM84.2834 18.6355V19.852H79.6853V18.6355H84.2834Z" fill="black"/>
<path d="M90.273 18.6355V29.846H89.125V18.6355H90.273ZM93.1007 18.6355V19.852H86.3034V18.6355H93.1007Z" fill="black"/>
<path d="M101.266 23.4554V24.6642H96.5044V23.4554H101.266ZM96.6857 18.6355V29.846H95.5195V18.6355H96.6857ZM102.281 18.6355V29.846H101.121V18.6355H102.281Z" fill="black"/>
<path d="M111.056 28.6372V29.846H106.397V28.6372H111.056ZM106.633 18.6355V29.846H105.467V18.6355H106.633ZM110.439 23.4554V24.6642H106.397V23.4554H110.439ZM110.995 18.6355V19.852H106.397V18.6355H110.995Z" fill="black"/>
<path d="M113.613 18.6355H116.526C117.186 18.6355 117.744 18.7638 118.199 19.0204C118.659 19.2771 119.007 19.6569 119.245 20.16C119.486 20.6579 119.607 21.2713 119.607 22.0002C119.607 22.5135 119.525 22.9831 119.36 23.4092C119.198 23.8301 118.965 24.1894 118.659 24.4871C118.357 24.7797 117.994 24.9979 117.571 25.1416L117.245 25.3033H114.508L114.496 24.0944H116.562C116.981 24.0944 117.329 24.0021 117.607 23.8173C117.885 23.6273 118.095 23.3733 118.236 23.055C118.377 22.7368 118.447 22.3851 118.447 22.0002C118.447 21.569 118.381 21.1917 118.248 20.8683C118.115 20.545 117.905 20.296 117.619 20.1215C117.337 19.9418 116.973 19.852 116.526 19.852H114.78V29.846H113.613V18.6355ZM118.755 29.846L116.616 24.7643L117.831 24.7566L120 29.7536V29.846H118.755Z" fill="black"/>
<path d="M0 23.2369L7.27933 29.9999V14.5113L0 7.74854V23.2369Z" fill="#FB1010"/>
<path d="M9.39813 30.0001L16.6728 23.2408L9.39813 16.4818V30.0001Z" fill="#FB1010"/>
<path d="M34.4048 14.5113V29.9999L41.6841 23.2369V7.74854L34.4048 14.5113Z" fill="#FB1010"/>
<path d="M32.286 30.0001V16.4818L25.0113 23.2408L32.286 30.0001Z" fill="#FB1010"/>
<path d="M33.3449 0L20.8412 11.6127L8.33779 0L2.1178 5.77782L16.6883 19.3152L20.8412 23.176L24.9966 19.3152L39.5647 5.77782L33.3449 0Z" fill="#FCD535"/>
</svg>
