<svg width="95" height="22" viewBox="0 0 95 22" fill="none" xmlns="http://www.w3.org/2000/svg">
<path d="M40.6697 0.00564633H42.6261L45.3143 4.39849L47.8686 0.00564633H49.7724V8.3961H47.0124V4.11053L44.3624 8.50338L41.722 4.11053V8.3961H40.6697V0.00564633Z" fill="white"/>
<path d="M52.4765 0.00564633H58.4844V1.29866H55.246L55.2413 3.56284H57.719V4.85585H55.2413V7.10309H58.4844V8.3961H52.4765V0.00564633Z" fill="white"/>
<path d="M62.0399 1.29301H60.0118V0H66.8328V1.29301H64.8047V8.3961H62.0399V1.29301Z" fill="white"/>
<path d="M70.7184 2.12302L69.8957 0.00564633H72.8087L76.291 8.40175H73.1675L72.6413 7.05792H69.8383L69.3169 8.40175H68.1067L70.7184 2.12302ZM72.1391 5.76491L71.2398 3.4612L70.3453 5.76491H72.1391Z" fill="white"/>
<path d="M43.1427 13.666V21.8871H42.2338V13.666H43.1427ZM45.3813 13.666V14.5581H40V13.666H45.3813Z" fill="white"/>
<path d="M52.5243 17.5168V18.0363C52.5243 18.6536 52.4589 19.2069 52.3282 19.6963C52.1975 20.1856 52.0093 20.6016 51.7638 20.9441C51.5182 21.2867 51.2232 21.5483 50.8788 21.729C50.5376 21.9097 50.155 22 49.7308 22C49.3195 22 48.9416 21.9097 48.5972 21.729C48.256 21.5483 47.9594 21.2867 47.7075 20.9441C47.4588 20.6016 47.2658 20.1856 47.1287 19.6963C46.9916 19.2069 46.923 18.6536 46.923 18.0363V17.5168C46.923 16.8995 46.99 16.348 47.1239 15.8624C47.261 15.3731 47.454 14.9571 47.7027 14.6146C47.9514 14.2683 48.2464 14.0048 48.5876 13.8241C48.932 13.6434 49.3099 13.5531 49.7213 13.5531C50.1454 13.5531 50.5281 13.6434 50.8693 13.8241C51.2137 14.0048 51.5087 14.2683 51.7542 14.6146C52.0029 14.9571 52.1927 15.3731 52.3234 15.8624C52.4574 16.348 52.5243 16.8995 52.5243 17.5168ZM51.6107 18.0363V17.5055C51.6107 17.0162 51.5676 16.5833 51.4815 16.2069C51.3986 15.8304 51.2759 15.5142 51.1132 15.2583C50.9506 15.0023 50.7513 14.8085 50.5153 14.6767C50.2825 14.545 50.0178 14.4791 49.7213 14.4791C49.4343 14.4791 49.1744 14.545 48.9416 14.6767C48.712 14.8085 48.5143 15.0023 48.3485 15.2583C48.1858 15.5142 48.0599 15.8304 47.9706 16.2069C47.8813 16.5833 47.8366 17.0162 47.8366 17.5055V18.0363C47.8366 18.5294 47.8813 18.966 47.9706 19.3462C48.0599 19.7226 48.1874 20.0407 48.3532 20.3005C48.5223 20.5564 48.7216 20.7503 48.9512 20.882C49.184 21.0138 49.4438 21.0796 49.7308 21.0796C50.0306 21.0796 50.2969 21.0138 50.5297 20.882C50.7625 20.7503 50.9586 20.5564 51.118 20.3005C51.2806 20.0407 51.4034 19.7226 51.4863 19.3462C51.5692 18.966 51.6107 18.5294 51.6107 18.0363Z" fill="white"/>
<path d="M59.9352 17.7935V20.803C59.8491 20.9535 59.712 21.1229 59.5239 21.3111C59.3357 21.4956 59.0758 21.6575 58.7442 21.7967C58.4157 21.9322 57.9916 22 57.4718 22C57.0477 22 56.6571 21.9134 56.2999 21.7403C55.9459 21.5634 55.6382 21.3074 55.3767 20.9724C55.1184 20.6336 54.9175 20.2233 54.774 19.7415C54.6337 19.2559 54.5636 18.7063 54.5636 18.0927V17.4547C54.5636 16.8411 54.6241 16.2934 54.7453 15.8116C54.8697 15.3298 55.0515 14.9214 55.2906 14.5864C55.5298 14.2476 55.8232 13.9916 56.1708 13.8185C56.5183 13.6415 56.917 13.5531 57.3666 13.5531C57.8991 13.5531 58.344 13.6622 58.7011 13.8806C59.0615 14.0951 59.3421 14.3925 59.543 14.7727C59.7471 15.1529 59.8778 15.5858 59.9352 16.0713H59.0121C58.9706 15.774 58.8877 15.503 58.7633 15.2583C58.6421 15.0136 58.4684 14.8179 58.2419 14.6711C58.0155 14.5205 57.7237 14.4452 57.3666 14.4452C57.0445 14.4452 56.7655 14.5148 56.5295 14.6541C56.2935 14.7934 56.099 14.9929 55.9459 15.2526C55.7929 15.5124 55.6781 15.8267 55.6015 16.1956C55.5282 16.5645 55.4915 16.9804 55.4915 17.4434V18.0927C55.4915 18.567 55.5378 18.9905 55.6302 19.3632C55.7259 19.7358 55.8614 20.0539 56.0368 20.3174C56.2122 20.5771 56.4211 20.7747 56.6634 20.9103C56.909 21.0458 57.18 21.1135 57.4766 21.1135C57.8051 21.1135 58.0713 21.0815 58.2754 21.0175C58.4795 20.9498 58.639 20.8707 58.7538 20.7804C58.8686 20.6863 58.9563 20.5978 59.0168 20.515V18.6743H57.4049V17.7935H59.9352Z" fill="white"/>
<path d="M66.7722 21.0006V21.8871H63.0842V21.0006H66.7722ZM63.2708 13.666V21.8871H62.3476V13.666H63.2708ZM66.2843 17.2006V18.0871H63.0842V17.2006H66.2843ZM66.7243 13.666V14.5581H63.0842V13.666H66.7243Z" fill="white"/>
<path d="M71.4662 13.666V21.8871H70.5573V13.666H71.4662ZM73.7048 13.666V14.5581H68.3235V13.666H73.7048Z" fill="white"/>
<path d="M80.1686 17.2006V18.0871H76.3993V17.2006H80.1686ZM76.5428 13.666V21.8871H75.6196V13.666H76.5428ZM80.9722 13.666V21.8871H80.0538V13.666H80.9722Z" fill="white"/>
<path d="M87.9191 21.0006V21.8871H84.2312V21.0006H87.9191ZM84.4177 13.666V21.8871H83.4945V13.666H84.4177ZM87.4312 17.2006V18.0871H84.2312V17.2006H87.4312ZM87.8713 13.666V14.5581H84.2312V13.666H87.8713Z" fill="white"/>
<path d="M89.944 13.666H92.2496C92.7726 13.666 93.2142 13.7601 93.5746 13.9483C93.9381 14.1365 94.2139 14.4151 94.4021 14.784C94.5934 15.1491 94.6891 15.5989 94.6891 16.1335C94.6891 16.5099 94.6237 16.8543 94.493 17.1667C94.3654 17.4754 94.1805 17.7389 93.9381 17.9572C93.6989 18.1718 93.4119 18.3318 93.0771 18.4372L92.8188 18.5557H90.6519L90.6424 17.6693H92.2783C92.6099 17.6693 92.8858 17.6015 93.1058 17.466C93.3258 17.3267 93.4917 17.1404 93.6033 16.907C93.7149 16.6736 93.7707 16.4158 93.7707 16.1335C93.7707 15.8173 93.7181 15.5406 93.6128 15.3034C93.5076 15.0663 93.3418 14.8837 93.1154 14.7558C92.8921 14.624 92.6035 14.5581 92.2496 14.5581H90.8672V21.8871H89.944V13.666ZM94.0146 21.8871L92.3213 18.1605L93.2828 18.1548L95 21.8193V21.8871H94.0146Z" fill="white"/>
<path d="M0 17.0404L5.7628 21.9999V10.6416L0 5.68225V17.0404Z" fill="#FB1010"/>
<path d="M7.44019 22.0001L13.1993 17.0433L7.44019 12.0867V22.0001Z" fill="#FB1010"/>
<path d="M27.2371 10.6416V21.9999L32.9999 17.0404V5.68225L27.2371 10.6416Z" fill="#FB1010"/>
<path d="M25.5597 22.0001V12.0867L19.8006 17.0433L25.5597 22.0001Z" fill="#FB1010"/>
<path d="M26.398 0L16.4993 8.51596L6.60074 0L1.67657 4.23707L13.2116 14.1645L16.4993 16.9957L19.789 14.1645L31.322 4.23707L26.398 0Z" fill="#FCD535"/>
</svg>
