<svg width="651" height="491" viewBox="0 0 651 491" fill="none" xmlns="http://www.w3.org/2000/svg">
<g filter="url(#filter0_d_434_49)">
<path d="M4 380.313L116.287 491V237.503L4 126.82V380.313Z" fill="#43BB7A"/>
<path d="M148.971 491L261.187 380.373L148.971 269.751V491Z" fill="#43BB7A"/>
<path d="M534.713 237.503V491L647 380.313V126.82L534.713 237.503Z" fill="#43BB7A"/>
<path d="M502.029 491V269.751L389.813 380.373L502.029 491Z" fill="#43BB7A"/>
<path d="M518.362 0L325.487 190.061L132.615 0L36.6687 94.5637L325.487 379.314L614.306 94.5637L518.362 0Z" fill="#43BB7A"/>
<path d="M318.468 197.184L325.487 204.1L332.506 197.184L518.361 14.0401L600.061 94.5648L325.487 365.271L50.9134 94.5648L132.616 14.04L318.468 197.184ZM106.287 241.688V467.101L14 376.128V150.719L106.287 241.688ZM158.971 293.651L246.943 380.373L158.971 467.099V293.651ZM637 150.719V376.128L544.713 467.101V241.688L637 150.719ZM404.057 380.373L492.029 293.651V467.099L404.057 380.373Z" stroke="black" stroke-width="20"/>
</g>
<defs>
<filter id="filter0_d_434_49" x="0" y="0" width="651" height="499" filterUnits="userSpaceOnUse" color-interpolation-filters="sRGB">
<feFlood flood-opacity="0" result="BackgroundImageFix"/>
<feColorMatrix in="SourceAlpha" type="matrix" values="0 0 0 0 0 0 0 0 0 0 0 0 0 0 0 0 0 0 127 0" result="hardAlpha"/>
<feOffset dy="4"/>
<feGaussianBlur stdDeviation="2"/>
<feComposite in2="hardAlpha" operator="out"/>
<feColorMatrix type="matrix" values="0 0 0 0 0 0 0 0 0 0 0 0 0 0 0 0 0 0 0.25 0"/>
<feBlend mode="normal" in2="BackgroundImageFix" result="effect1_dropShadow_434_49"/>
<feBlend mode="normal" in="SourceGraphic" in2="effect1_dropShadow_434_49" result="shape"/>
</filter>
</defs>
</svg>
